<svg width="142" height="36" viewBox="0 0 142 36" fill="none" xmlns="http://www.w3.org/2000/svg">
<path d="M52.3879 5.75992V6.04376C52.3787 6.18413 52.4232 6.32274 52.5125 6.43146C52.574 6.48678 52.6465 6.52837 52.7253 6.55344C52.8041 6.57851 52.8873 6.58649 52.9694 6.57684H53.454V8.30762H48.8156V6.57684C49.021 6.59167 49.2266 6.55102 49.411 6.45915C49.4767 6.41356 49.5284 6.35051 49.5602 6.27712C49.592 6.20372 49.6026 6.1229 49.591 6.04376V3.64837C49.6016 3.5683 49.5905 3.48684 49.5589 3.41253C49.5272 3.33823 49.4761 3.27381 49.411 3.22606C49.2258 3.13721 49.0203 3.09899 48.8156 3.11529V1.38451H53.9248C54.3214 1.37416 54.7168 1.43033 55.0948 1.55066C55.3827 1.64082 55.6442 1.80007 55.8564 2.01451C56.0471 2.20837 56.1874 2.4461 56.2648 2.70682C56.3478 3.00893 56.3874 3.32128 56.3825 3.63452C56.3898 3.94106 56.3501 4.24692 56.2648 4.54145C56.1916 4.80398 56.0507 5.0427 55.8564 5.23376C55.6388 5.43024 55.3778 5.57256 55.0948 5.64915C54.713 5.74877 54.3193 5.79536 53.9248 5.78761L52.3879 5.75992ZM52.3879 4.63837H52.9002C53.0013 4.64998 53.1038 4.63717 53.1989 4.60104C53.2941 4.5649 53.3792 4.50648 53.4471 4.43068C53.5525 4.2682 53.6057 4.07734 53.5994 3.88375C53.604 3.69038 53.551 3.50002 53.4471 3.33683C53.3814 3.25758 53.297 3.19587 53.2016 3.15721C53.1061 3.11855 53.0026 3.10414 52.9002 3.11529H52.3879V4.63837Z" fill="#F2F2F2"/>
<path d="M56.6802 5.71177C56.672 5.29289 56.7547 4.8772 56.9225 4.49331C57.0778 4.14796 57.3155 3.84604 57.6148 3.61407C57.9356 3.36595 58.3028 3.18468 58.6948 3.08099C59.6164 2.84084 60.5841 2.84084 61.5056 3.08099C61.8949 3.18623 62.2596 3.3674 62.5787 3.61407C62.878 3.84604 63.1157 4.14796 63.271 4.49331C63.4454 4.87531 63.5306 5.29198 63.5202 5.71177C63.5229 6.13007 63.4331 6.54379 63.2572 6.92332C63.1019 7.27059 62.8642 7.57476 62.5649 7.80948C62.2446 8.05578 61.8804 8.23903 61.4918 8.34948C61.0404 8.47147 60.5747 8.53201 60.1071 8.52948C59.6396 8.53244 59.1738 8.47188 58.7225 8.34948C58.3312 8.24048 57.9645 8.05714 57.6425 7.80948C57.3432 7.57476 57.1055 7.27059 56.9502 6.92332C56.7751 6.54327 56.683 6.13023 56.6802 5.71177ZM59.3733 5.71177C59.3605 5.94237 59.3605 6.17349 59.3733 6.40409C59.3876 6.55729 59.4274 6.70704 59.491 6.84717C59.5357 6.94823 59.6107 7.0329 59.7056 7.08947C59.8138 7.14805 59.9357 7.17673 60.0587 7.17255C60.1793 7.17551 60.2987 7.14687 60.4048 7.08947C60.5013 7.03483 60.5769 6.94956 60.6195 6.84717C60.683 6.70704 60.7228 6.55729 60.7372 6.40409C60.75 6.17349 60.75 5.94237 60.7372 5.71177C60.7616 5.33378 60.7098 4.95472 60.5848 4.59715C60.5363 4.49217 60.4562 4.405 60.3556 4.34789C60.255 4.29077 60.1391 4.26658 60.0241 4.27869C59.9017 4.27238 59.7799 4.29866 59.671 4.35484C59.5763 4.40851 59.5011 4.49096 59.4564 4.59023C59.392 4.73252 59.3523 4.88467 59.3387 5.04023C59.3376 5.26455 59.3492 5.48875 59.3733 5.71177Z" fill="#F2F2F2"/>
<path d="M68.498 5.30305C68.5013 5.20443 68.4873 5.106 68.4564 5.01228C68.4296 4.94908 68.3894 4.89241 68.3387 4.84612C68.2958 4.80738 68.2432 4.78106 68.1864 4.76997H68.0203C67.9354 4.76334 67.8502 4.7761 67.771 4.80729C67.6919 4.83847 67.6209 4.88727 67.5633 4.94997C67.4518 5.09644 67.3976 5.27865 67.411 5.46228V6.15459C67.3999 6.27817 67.429 6.40203 67.4941 6.50767C67.5448 6.54326 67.6025 6.56781 67.6633 6.57974C67.7241 6.59166 67.7868 6.5907 67.8472 6.5769H68.1033V8.30768H64.1364V6.5769H64.3856C64.442 6.57935 64.4982 6.56876 64.5499 6.54594C64.6015 6.52313 64.6472 6.48871 64.6833 6.44536C64.7533 6.36222 64.7902 6.25628 64.7872 6.14767V5.24766C64.7933 5.19086 64.7844 5.13345 64.7613 5.08119C64.7382 5.02893 64.7018 4.98367 64.6556 4.94997C64.5764 4.89205 64.4832 4.85621 64.3856 4.84612H64.1364V3.11534H66.9472L66.8433 4.41689H66.9264C66.9501 4.19629 67.0189 3.98292 67.1285 3.79C67.238 3.59707 67.386 3.42871 67.5633 3.29534C67.9935 3.01223 68.5029 2.87397 69.0172 2.90073C69.3795 2.88758 69.7405 2.95128 70.0764 3.08765C70.3206 3.18945 70.5367 3.34855 70.7064 3.5515C70.8511 3.72999 70.9551 3.93791 71.0111 4.16073C71.0636 4.362 71.0915 4.5689 71.0941 4.77689V6.11305C71.083 6.23663 71.1121 6.36049 71.1772 6.46613C71.223 6.5071 71.2768 6.53811 71.3352 6.55718C71.3936 6.57625 71.4553 6.58296 71.5164 6.5769H71.7726V8.30768H68.498V5.30305Z" fill="#F2F2F2"/>
<path d="M72.1118 5.71177C72.0993 5.2925 72.1821 4.87586 72.3541 4.4933C72.5094 4.14796 72.7472 3.84604 73.0465 3.61406C73.3672 3.36594 73.7344 3.18468 74.1265 3.08098C74.5777 2.95858 75.0435 2.89803 75.5111 2.90098C75.9786 2.89887 76.4443 2.95941 76.8957 3.08098C77.285 3.18622 77.6497 3.36739 77.9688 3.61406C78.2681 3.84604 78.5058 4.14796 78.6611 4.4933C78.8403 4.87418 78.9302 5.29089 78.9242 5.71177C78.9322 6.13135 78.8471 6.5475 78.6749 6.93023C78.5196 7.2775 78.282 7.58167 77.9826 7.81639C77.6623 8.0627 77.2982 8.24594 76.9095 8.3564C76.4581 8.47797 75.9924 8.53851 75.5249 8.5364C75.0574 8.53935 74.5916 8.4788 74.1403 8.3564C73.749 8.2474 73.3823 8.06406 73.0603 7.81639C72.7609 7.58167 72.5233 7.2775 72.368 6.93023C72.1935 6.54804 72.106 6.13187 72.1118 5.71177ZM74.8049 5.71177C74.7884 5.94224 74.7884 6.1736 74.8049 6.40408C74.8193 6.55728 74.859 6.70703 74.9226 6.84716C74.9652 6.94955 75.0407 7.03482 75.1372 7.08947C75.2454 7.14805 75.3673 7.17672 75.4903 7.17254C75.611 7.1755 75.7303 7.14686 75.8365 7.08947C75.9314 7.03289 76.0064 6.94822 76.0511 6.84716C76.1147 6.70703 76.1544 6.55728 76.1688 6.40408C76.1931 6.17413 76.2047 5.943 76.2034 5.71177C76.2279 5.33377 76.1761 4.95471 76.0511 4.59714C76.0026 4.49216 75.9224 4.40499 75.8218 4.34788C75.7213 4.29076 75.6053 4.26657 75.4903 4.27868C75.368 4.27238 75.2461 4.29866 75.1372 4.35484C75.0409 4.40643 74.9651 4.48952 74.9226 4.59022C74.8583 4.73251 74.8185 4.88466 74.8049 5.04022C74.7889 5.26378 74.7889 5.48821 74.8049 5.71177Z" fill="#F2F2F2"/>
<path d="M86.4288 6.11318C86.4158 6.23784 86.4477 6.36304 86.5188 6.46626C86.5628 6.50781 86.6153 6.53925 86.6727 6.55838C86.7301 6.57752 86.791 6.58388 86.8511 6.57703H87.0104V8.30781H83.8257V5.30318C83.8423 5.20696 83.8423 5.10862 83.8257 5.0124C83.807 4.94656 83.7712 4.88684 83.7219 4.83933C83.6815 4.80082 83.6312 4.77443 83.5765 4.76317C83.5236 4.75644 83.4701 4.75644 83.4173 4.76317C83.3364 4.75474 83.2547 4.76681 83.1796 4.79827C83.1046 4.82973 83.0387 4.87956 82.988 4.94317C82.9041 5.10028 82.8657 5.27773 82.8773 5.45548V6.1478C82.8661 6.27137 82.8953 6.39524 82.9604 6.50087C83.0061 6.54185 83.0599 6.57285 83.1183 6.59192C83.1767 6.61099 83.2385 6.61771 83.2996 6.61164H83.4588V8.30781H79.6026V6.57703H79.8796C79.936 6.57948 79.9922 6.56889 80.0438 6.54607C80.0954 6.52326 80.1411 6.48884 80.1773 6.44549C80.2421 6.35996 80.2762 6.2551 80.2742 6.1478V5.24779C80.2818 5.19157 80.2743 5.13433 80.2524 5.08199C80.2305 5.02965 80.195 4.98412 80.1496 4.9501C80.0602 4.89472 79.957 4.8659 79.8519 4.86702H79.6026V3.11547H82.3857L82.2819 4.41702H82.3857C82.4283 3.98079 82.6394 3.57839 82.9742 3.29547C83.2803 3.1033 83.623 2.97697 83.9806 2.92453C84.3382 2.87208 84.7028 2.89467 85.0511 2.99086C85.2448 3.05182 85.4255 3.14805 85.5842 3.2747C85.7431 3.40212 85.869 3.56598 85.9511 3.7524C86.0513 3.96974 86.1055 4.20544 86.1104 4.44471H86.1727C86.1955 4.21464 86.2688 3.99243 86.3873 3.79394C86.4937 3.60931 86.6376 3.44896 86.8096 3.32316C86.9827 3.19759 87.1742 3.09951 87.3773 3.03239C87.5871 2.96266 87.8069 2.92758 88.0281 2.92855C88.3792 2.91495 88.729 2.97877 89.0527 3.11547C89.2949 3.21727 89.5088 3.37646 89.6758 3.57932C89.8178 3.7595 89.9215 3.96683 89.9804 4.18855C90.0329 4.38982 90.0608 4.59672 90.0635 4.80471V6.11318C90.0505 6.23784 90.0824 6.36304 90.1535 6.46626C90.1985 6.50836 90.2522 6.5401 90.3108 6.55924C90.3694 6.57837 90.4315 6.58445 90.4927 6.57703H90.6935V8.30781H87.4188V5.30318C87.4222 5.20456 87.4082 5.10613 87.3773 5.0124C87.356 4.94769 87.3205 4.88856 87.2734 4.83933C87.2331 4.80082 87.1827 4.77443 87.1281 4.76317C87.0752 4.75644 87.0217 4.75644 86.9688 4.76317C86.8889 4.75396 86.8079 4.76571 86.7338 4.79727C86.6598 4.82883 86.5953 4.87911 86.5465 4.94317C86.4568 5.09827 86.4158 5.27677 86.4288 5.45548V6.11318Z" fill="#F2F2F2"/>
<path d="M93.5596 3.7729C93.4214 3.76084 93.2824 3.76084 93.1442 3.7729C93.0445 3.7895 92.9469 3.81737 92.8535 3.85598C92.7803 3.88214 92.7106 3.91701 92.6458 3.95982L92.5073 4.07059L92.5558 4.11905L92.7496 4.02213C92.8348 3.98566 92.9271 3.96909 93.0196 3.97367C93.1984 3.96884 93.372 4.03334 93.5043 4.15367C93.5774 4.23056 93.6332 4.32228 93.6679 4.42261C93.7025 4.52295 93.7152 4.62955 93.705 4.73521C93.7111 4.8544 93.6862 4.97314 93.6328 5.07988C93.5795 5.18663 93.4994 5.27776 93.4004 5.34445C93.1548 5.50702 92.8638 5.58705 92.5696 5.57291C92.2774 5.58574 91.9917 5.48389 91.7735 5.28906C91.671 5.18024 91.5917 5.05169 91.5406 4.91124C91.4894 4.77078 91.4673 4.62138 91.4758 4.47213C91.4798 4.26933 91.5371 4.07116 91.6419 3.89751C91.7649 3.68946 91.9358 3.51381 92.1404 3.3852C92.4045 3.21503 92.6944 3.08878 92.9989 3.01136C93.4105 2.90669 93.8343 2.85779 94.2589 2.86597C94.7443 2.85348 95.2291 2.90941 95.6989 3.03213C96.015 3.11307 96.3116 3.25668 96.5712 3.45443C96.761 3.61312 96.9065 3.81823 96.9935 4.04982C97.0726 4.27203 97.1124 4.50629 97.1112 4.74213V6.60445C97.0958 6.79799 97.0958 6.99246 97.1112 7.18599C97.1112 7.28984 97.2012 7.3383 97.3258 7.3383C97.3701 7.3417 97.4142 7.3298 97.4507 7.3046C97.4872 7.2794 97.514 7.24242 97.5266 7.19984C97.5777 7.04606 97.5989 6.8839 97.5889 6.72215V6.12676H98.1289V6.72907C98.1294 6.98222 98.1062 7.23485 98.0597 7.48369C98.0185 7.69044 97.9256 7.88338 97.7897 8.04446C97.6455 8.21107 97.4589 8.33549 97.2497 8.40446C96.967 8.48995 96.6725 8.52968 96.3774 8.52216C96.1082 8.52881 95.8396 8.49378 95.5812 8.41831C95.4011 8.3666 95.2321 8.2821 95.0827 8.16908C94.9755 8.08072 94.8862 7.97261 94.8197 7.85061C94.7733 7.76044 94.7473 7.66117 94.7435 7.55984H94.6673C94.6469 7.69596 94.5921 7.82463 94.5081 7.93369C94.4054 8.05953 94.2782 8.16317 94.1343 8.23831C93.9535 8.33744 93.7602 8.41195 93.5596 8.45985C93.3101 8.51828 93.0544 8.54618 92.7981 8.54293C92.5491 8.54425 92.3008 8.51872 92.0573 8.46677C91.8544 8.41913 91.662 8.33465 91.4896 8.21754C91.3341 8.10552 91.2101 7.9553 91.1296 7.78138C91.0358 7.58253 90.9907 7.3642 90.9981 7.14446C90.9927 7.01784 91.0126 6.89142 91.0566 6.77256C91.1006 6.6537 91.1678 6.54478 91.2542 6.45214C91.4326 6.26419 91.6534 6.12174 91.8981 6.03676C92.1807 5.92054 92.4725 5.82792 92.7704 5.75983C93.0571 5.70744 93.3395 5.63338 93.615 5.53829C93.8489 5.45977 94.0669 5.34021 94.2589 5.18521C94.3447 5.10806 94.4123 5.0127 94.4566 4.9061C94.5009 4.7995 94.5209 4.68435 94.515 4.56906C94.5191 4.46367 94.5009 4.35861 94.4615 4.26077C94.4222 4.16293 94.3625 4.07452 94.2866 4.00136C94.0837 3.83263 93.8226 3.75056 93.5596 3.7729ZM94.515 5.84983C94.4431 5.94622 94.3539 6.02839 94.252 6.09214L93.9473 6.2306C93.8538 6.28616 93.7696 6.35627 93.6981 6.4383C93.6251 6.53056 93.5882 6.64621 93.5943 6.76368C93.593 6.86447 93.622 6.96332 93.6773 7.04753C93.7181 7.09421 93.7698 7.13004 93.8278 7.15179C93.8858 7.17354 93.9483 7.18054 94.0096 7.17215C94.0789 7.17296 94.1475 7.15776 94.2099 7.12774C94.2723 7.09772 94.327 7.05369 94.3696 6.99907C94.474 6.85987 94.5256 6.68812 94.515 6.51445V5.84983Z" fill="#F2F2F2"/>
<path d="M101.327 3.11517L101.244 4.41672H101.327C101.401 3.99349 101.593 3.59979 101.881 3.28133C102.014 3.15507 102.17 3.0564 102.342 2.99104C102.513 2.92568 102.695 2.89492 102.878 2.90056C103.094 2.8961 103.308 2.93616 103.508 3.01825C103.672 3.08604 103.817 3.19301 103.93 3.32979C104.041 3.45821 104.121 3.60956 104.166 3.77287C104.21 3.94488 104.233 4.12151 104.235 4.29903C104.235 4.44718 104.212 4.59444 104.166 4.73518C104.125 4.88124 104.052 5.01616 103.951 5.1298C103.848 5.24988 103.721 5.34664 103.577 5.41365C103.395 5.48772 103.199 5.52308 103.003 5.51749C102.732 5.53149 102.466 5.44521 102.255 5.27518C102.17 5.20434 102.101 5.11541 102.055 5.01482C102.008 4.91424 101.984 4.80453 101.985 4.69364C101.983 4.59739 101.997 4.5015 102.027 4.4098C102.044 4.34453 102.07 4.28173 102.103 4.22287L102.158 4.11902C102.158 4.11902 102.158 4.11902 102.124 4.11902C102.089 4.11902 101.985 4.19518 101.909 4.34749C101.821 4.56724 101.781 4.80328 101.791 5.0398V6.11288C101.778 6.23754 101.81 6.36274 101.881 6.46596C101.926 6.50807 101.98 6.5398 102.039 6.55894C102.097 6.57807 102.159 6.58415 102.22 6.57673H102.504V8.30751H98.5166V6.57673H98.7935C98.8499 6.57918 98.9061 6.56859 98.9578 6.54577C99.0094 6.52296 99.0551 6.48854 99.0912 6.44519C99.1612 6.36205 99.1981 6.2561 99.1951 6.1475V5.24749C99.2027 5.19057 99.1945 5.13264 99.1713 5.0801C99.148 5.02757 99.1108 4.98247 99.0635 4.9498C98.9742 4.89442 98.8709 4.8656 98.7658 4.86672H98.5166V3.11517H101.327Z" fill="#F2F2F2"/>
<path d="M107.254 6.01637C107.228 6.36105 107.323 6.70391 107.524 6.9856C107.614 7.07624 107.722 7.14706 107.841 7.19354C107.96 7.24003 108.088 7.26117 108.216 7.2556C108.319 7.25643 108.422 7.24006 108.52 7.20714C108.621 7.17681 108.715 7.12746 108.797 7.06176C108.887 6.98602 108.962 6.89452 109.019 6.79176C109.082 6.6588 109.122 6.51593 109.137 6.36945H110.861C110.814 6.73042 110.696 7.0786 110.514 7.39407C110.35 7.66932 110.128 7.90556 109.864 8.08638C109.579 8.26141 109.264 8.38338 108.936 8.44638C108.549 8.52704 108.154 8.56649 107.759 8.56407C107.335 8.56476 106.914 8.50651 106.506 8.39099C106.131 8.2888 105.78 8.11223 105.474 7.87176C105.18 7.63797 104.943 7.33949 104.782 6.99945C104.605 6.59388 104.523 6.15374 104.54 5.71175C104.529 5.29337 104.61 4.8777 104.775 4.49328C104.934 4.14993 105.171 3.84872 105.467 3.61405C105.765 3.37062 106.109 3.18936 106.478 3.08097C106.896 2.95827 107.33 2.89762 107.766 2.90097C108.269 2.88977 108.771 2.9671 109.247 3.12943C109.628 3.26006 109.973 3.4755 110.258 3.75943C110.524 4.03918 110.722 4.37523 110.84 4.74251C110.964 5.15531 111.023 5.58527 111.013 6.01637H107.254ZM107.946 4.18174C107.852 4.17437 107.758 4.19156 107.673 4.23163C107.588 4.2717 107.515 4.33325 107.461 4.4102C107.328 4.6475 107.254 4.91358 107.247 5.18559H108.631C108.629 4.92862 108.562 4.67631 108.437 4.45174C108.391 4.36294 108.322 4.28836 108.236 4.23594C108.151 4.18352 108.053 4.15522 107.953 4.15405L107.946 4.18174Z" fill="#F2F2F2"/>
<path d="M116.004 5.30301C116.006 5.20395 115.99 5.10542 115.956 5.01224C115.932 4.94699 115.895 4.88785 115.845 4.83916C115.8 4.80017 115.745 4.7739 115.686 4.76301C115.631 4.75634 115.575 4.75634 115.52 4.76301C115.435 4.75787 115.35 4.77131 115.271 4.80241C115.192 4.8335 115.121 4.88149 115.063 4.94301C114.955 5.09113 114.901 5.2721 114.911 5.45532V6.14763C114.898 6.27229 114.929 6.39749 115.001 6.50071C115.046 6.54243 115.1 6.57391 115.158 6.59302C115.217 6.61213 115.279 6.61843 115.34 6.61148H115.617V8.30764H111.657V6.57686H111.941C111.996 6.57877 112.051 6.56789 112.101 6.54508C112.152 6.52226 112.196 6.48813 112.231 6.44533C112.301 6.36218 112.338 6.25624 112.335 6.14763V5.24763C112.343 5.1907 112.335 5.13277 112.311 5.08024C112.288 5.0277 112.251 4.98261 112.204 4.94993C112.115 4.89345 112.011 4.86454 111.906 4.86686H111.657V3.11531H114.467L114.371 4.41685H114.454C114.476 4.19593 114.544 3.98212 114.654 3.78902C114.764 3.59593 114.912 3.42779 115.091 3.29531C115.52 3.01038 116.03 2.87196 116.544 2.90069C116.904 2.88747 117.263 2.9512 117.597 3.08761C117.821 3.18324 118.021 3.32904 118.181 3.51385C118.34 3.69866 118.456 3.91756 118.517 4.15377C118.565 4.35588 118.59 4.56243 118.594 4.76993V6.11302C118.581 6.23767 118.613 6.36288 118.684 6.4661C118.729 6.50781 118.783 6.53929 118.841 6.55841C118.9 6.57752 118.962 6.58381 119.023 6.57686H119.279V8.30764H116.004V5.30301Z" fill="#F2F2F2"/>
<path d="M123.107 1.38477V5.43479L123.751 5.12325C123.829 5.08951 123.901 5.04525 123.966 4.99171C123.981 4.97859 123.993 4.96261 124.001 4.94476C124.009 4.92691 124.014 4.90755 124.014 4.88786C124.014 4.81171 123.931 4.77017 123.765 4.77017H123.544V3.11554H127.144V4.77017H126.853C126.675 4.7718 126.497 4.78335 126.32 4.80479C126.145 4.81988 125.974 4.86435 125.814 4.93632L125.607 5.04709L126.694 6.23095C126.797 6.35543 126.93 6.45089 127.081 6.50787C127.25 6.55615 127.425 6.57718 127.601 6.57018V8.30788H123.495V6.5771H123.744C123.824 6.58238 123.903 6.5656 123.973 6.52864C123.993 6.51325 124.009 6.49328 124.02 6.47041C124.031 6.44753 124.036 6.4224 124.035 6.3971C124.025 6.33874 123.995 6.28535 123.952 6.24479C123.863 6.1408 123.765 6.04361 123.661 5.95402L123.087 6.23787V8.3148H119.784V6.5771H119.971C120.042 6.58174 120.112 6.56975 120.177 6.54209C120.242 6.51443 120.3 6.47187 120.345 6.41787C120.42 6.31769 120.461 6.19659 120.463 6.07172V3.64862C120.469 3.57262 120.457 3.49622 120.427 3.42618C120.396 3.35614 120.349 3.29463 120.29 3.24708C120.175 3.15882 120.033 3.11242 119.888 3.11554H119.784V1.38477H123.107Z" fill="#F2F2F2"/>
<path d="M127.961 5.71177C127.948 5.2925 128.031 4.87586 128.203 4.4933C128.358 4.14796 128.596 3.84604 128.895 3.61406C129.216 3.36594 129.583 3.18468 129.975 3.08098C130.426 2.95858 130.892 2.89803 131.36 2.90098C131.827 2.89887 132.293 2.95941 132.744 3.08098C133.134 3.18622 133.498 3.36739 133.818 3.61406C134.117 3.84604 134.355 4.14796 134.51 4.4933C134.682 4.87586 134.765 5.2925 134.752 5.71177C134.762 6.13083 134.68 6.54695 134.51 6.93023C134.355 7.2775 134.117 7.58167 133.818 7.81639C133.497 8.0627 133.133 8.24594 132.744 8.3564C132.293 8.47797 131.827 8.53851 131.36 8.5364C130.892 8.53935 130.426 8.4788 129.975 8.3564C129.584 8.2474 129.217 8.06406 128.895 7.81639C128.596 7.58167 128.358 7.2775 128.203 6.93023C128.033 6.54695 127.95 6.13083 127.961 5.71177ZM130.654 5.71177C130.649 5.94307 130.66 6.17443 130.688 6.40408C130.703 6.55728 130.742 6.70703 130.806 6.84716C130.849 6.94955 130.924 7.03482 131.021 7.08947C131.129 7.14805 131.251 7.17672 131.374 7.17254C131.494 7.1755 131.614 7.14686 131.72 7.08947C131.815 7.03289 131.89 6.94822 131.934 6.84716C131.998 6.70703 132.038 6.55728 132.052 6.40408C132.065 6.17349 132.065 5.94236 132.052 5.71177C132.077 5.33377 132.025 4.95471 131.9 4.59714C131.851 4.49216 131.771 4.40499 131.671 4.34788C131.57 4.29076 131.454 4.26657 131.339 4.27868C131.217 4.27238 131.095 4.29866 130.986 4.35484C130.89 4.40643 130.814 4.48952 130.771 4.59022C130.707 4.73251 130.667 4.88466 130.654 5.04022C130.638 5.26378 130.638 5.48821 130.654 5.71177Z" fill="#F2F2F2"/>
<path d="M56.701 19.3292C56.8702 19.327 57.0327 19.263 57.1579 19.1492C57.2355 19.0528 57.2933 18.942 57.3277 18.8231C57.3622 18.7043 57.3727 18.5798 57.3587 18.4568H57.871C57.8782 18.8655 57.8434 19.2738 57.7671 19.6753C57.7227 19.9549 57.6188 20.2216 57.4625 20.4576C57.3182 20.6489 57.1208 20.7934 56.8948 20.873C56.6272 20.9622 56.3461 21.0044 56.0641 20.9976C55.7487 20.9961 55.4356 20.9447 55.1364 20.8453C54.8516 20.7519 54.5812 20.6191 54.3333 20.4507L53.8971 20.6376C53.7303 20.7083 53.5592 20.7684 53.3848 20.8176C53.1691 20.8775 52.9493 20.9214 52.7271 20.9492C52.4352 20.9817 52.1416 20.9979 51.8479 20.9976C51.4655 21.0003 51.0842 20.9562 50.7125 20.8661C50.379 20.7946 50.0604 20.6657 49.7709 20.4853C49.5105 20.3185 49.2924 20.0933 49.134 19.8276C48.9674 19.5424 48.8835 19.2163 48.8917 18.8861C48.8864 18.6367 48.9322 18.389 49.0263 18.158C49.1203 17.927 49.2607 17.7177 49.4386 17.543C49.615 17.3684 49.8184 17.2235 50.0409 17.1138C50.2822 16.992 50.535 16.8946 50.7956 16.823C50.6489 16.606 50.5259 16.3739 50.4286 16.1307C50.3467 15.9305 50.3021 15.7169 50.2971 15.5007C50.2718 15.1622 50.3568 14.8245 50.5394 14.5384C50.7087 14.3024 50.9318 14.1102 51.1902 13.9776C51.4764 13.8391 51.7823 13.7457 52.0971 13.7007C52.4248 13.6512 52.7557 13.6258 53.0871 13.6245C53.3684 13.6244 53.649 13.6522 53.9248 13.7076C54.1846 13.7575 54.4346 13.8486 54.6656 13.9776C54.8743 14.0928 55.0541 14.2537 55.1917 14.4484C55.3286 14.6528 55.3987 14.8947 55.3925 15.1407C55.3996 15.3646 55.3419 15.5857 55.2264 15.7776C55.1107 15.9558 54.9628 16.1107 54.7902 16.2345C54.5935 16.3708 54.3822 16.4846 54.1602 16.5738C53.9248 16.6707 53.6825 16.7676 53.4263 16.8576C53.6817 17.1616 53.9569 17.4484 54.2502 17.7161C54.5372 17.9762 54.8376 18.2211 55.1502 18.4499C55.206 18.4337 55.2562 18.4026 55.2956 18.3599C55.3196 18.3414 55.3386 18.317 55.3507 18.2892C55.3628 18.2614 55.3676 18.2309 55.3648 18.2007C55.3622 18.1673 55.3529 18.1347 55.3375 18.105C55.322 18.0752 55.3007 18.0489 55.2748 18.0276C55.1302 17.9599 54.9696 17.9336 54.811 17.9515V16.6153H57.8848V17.9653H57.6633C57.5025 17.9632 57.3451 18.0117 57.2133 18.1038C57.081 18.2056 56.9582 18.3191 56.8464 18.443C56.7287 18.5745 56.6179 18.713 56.5071 18.8515C56.403 18.9823 56.282 19.0987 56.1471 19.1976L56.2856 19.2599L56.4448 19.3015L56.5971 19.3361L56.701 19.3292ZM51.5086 17.9999C51.4054 18.0808 51.3302 18.1923 51.294 18.3184C51.2543 18.4462 51.2333 18.5791 51.2317 18.713C51.2213 18.8419 51.2409 18.9716 51.2889 19.0917C51.337 19.2118 51.4122 19.3191 51.5086 19.4053C51.7048 19.5615 51.9503 19.6425 52.201 19.6338C52.3161 19.6434 52.4319 19.6434 52.5471 19.6338C52.6728 19.6162 52.796 19.5837 52.914 19.5369L52.4986 19.163C52.3762 19.05 52.2607 18.9297 52.1525 18.803C52.0417 18.6853 51.9379 18.5607 51.834 18.4361C51.7302 18.3115 51.6194 18.1661 51.5086 17.9999ZM53.4125 15.2307C53.4117 15.1812 53.4008 15.1323 53.3806 15.0871C53.3603 15.0419 53.3312 15.0012 53.2948 14.9676C53.2497 14.9249 53.1964 14.8918 53.138 14.8703C53.0797 14.8489 53.0176 14.8396 52.9556 14.843C52.8196 14.8352 52.6858 14.8798 52.5817 14.9676C52.5388 15.0071 52.5049 15.0554 52.4822 15.1091C52.4595 15.1629 52.4486 15.2208 52.4502 15.2791C52.453 15.3881 52.4814 15.4948 52.5333 15.5907C52.5817 15.6945 52.6579 15.833 52.7479 15.9922C52.921 15.9049 53.0836 15.798 53.2325 15.6738C53.2933 15.6177 53.341 15.549 53.3721 15.4724C53.4032 15.3958 53.417 15.3132 53.4125 15.2307Z" fill="#F2F2F2"/>
<path d="M64.9256 18.2218V18.5057C64.9164 18.646 64.961 18.7847 65.0502 18.8934C65.1117 18.9487 65.1842 18.9903 65.263 19.0153C65.3418 19.0404 65.425 19.0484 65.5072 19.0388H65.9918V20.7695H61.3533V19.0388C61.5609 19.0535 61.7688 19.0129 61.9556 18.9211C62.0202 18.8744 62.071 18.8112 62.1027 18.7381C62.1343 18.665 62.1457 18.5847 62.1356 18.5057V16.1103C62.1448 16.0303 62.1331 15.9493 62.1015 15.8753C62.07 15.8013 62.0197 15.7367 61.9556 15.688C61.7679 15.5992 61.5603 15.561 61.3533 15.5772V13.8464H66.4626C66.8614 13.8361 67.2591 13.8922 67.6395 14.0126C67.9247 14.1043 68.1835 14.2634 68.3941 14.4764C68.587 14.6687 68.7276 14.907 68.8026 15.1687C68.8879 15.4705 68.9299 15.7829 68.9272 16.0964C68.9324 16.4033 68.8904 16.7092 68.8026 17.0034C68.7321 17.2671 68.5909 17.5065 68.3941 17.6957C68.178 17.8906 67.9197 18.0328 67.6395 18.1111C67.2553 18.2106 66.8593 18.2572 66.4626 18.2495L64.9256 18.2218ZM64.9256 17.1003H65.4379C65.5391 17.1119 65.6415 17.0991 65.7367 17.0629C65.8318 17.0268 65.9169 16.9684 65.9849 16.8926C66.0933 16.7315 66.1467 16.5396 66.1372 16.3457C66.1448 16.1519 66.0915 15.9607 65.9849 15.7987C65.9191 15.7195 65.8347 15.6578 65.7393 15.6191C65.6438 15.5805 65.5403 15.5661 65.4379 15.5772H64.9256V17.1003Z" fill="#F2F2F2"/>
<path d="M71.6964 16.2345C71.5572 16.2339 71.4182 16.2455 71.2811 16.2691C71.1815 16.2866 71.0841 16.3145 70.9903 16.3522C70.9171 16.3784 70.8474 16.4132 70.7826 16.456L70.6441 16.5668L70.6926 16.6153C70.7543 16.5775 70.8192 16.5451 70.8864 16.5183C70.9716 16.4819 71.0639 16.4653 71.1564 16.4699C71.3352 16.4651 71.5088 16.5296 71.6411 16.6499C71.7142 16.7268 71.77 16.8185 71.8047 16.9188C71.8393 17.0192 71.852 17.1258 71.8418 17.2314C71.8479 17.3506 71.823 17.4693 71.7696 17.5761C71.7163 17.6828 71.6362 17.774 71.5372 17.8407C71.2916 18.0032 71.0006 18.0833 70.7064 18.0691C70.4142 18.082 70.1285 17.9801 69.9103 17.7853C69.809 17.6759 69.731 17.5471 69.6811 17.4066C69.6311 17.2662 69.6101 17.1171 69.6195 16.9683C69.6211 16.7661 69.676 16.5679 69.7787 16.3937C69.9017 16.1857 70.0726 16.01 70.2772 15.8814C70.5413 15.7112 70.8312 15.585 71.1357 15.5076C71.5473 15.4033 71.9711 15.3544 72.3957 15.3622C72.8811 15.3492 73.366 15.4052 73.8357 15.5283C74.1518 15.6093 74.4484 15.7529 74.708 15.9506C74.8995 16.1078 75.0453 16.3134 75.1303 16.546C75.2094 16.7682 75.2492 17.0025 75.248 17.2383V19.0937C75.2326 19.2873 75.2326 19.4817 75.248 19.6753C75.248 19.7791 75.338 19.8276 75.4626 19.8276C75.5074 19.829 75.5514 19.8165 75.5887 19.7917C75.6259 19.7668 75.6545 19.731 75.6703 19.6891C75.7143 19.5339 75.733 19.3726 75.7257 19.2114V18.616H76.2657V19.2184C76.2697 19.4716 76.2465 19.7246 76.1965 19.973C76.1554 20.1797 76.0625 20.3727 75.9265 20.5337C75.7823 20.7004 75.5957 20.8248 75.3865 20.8937C75.1038 20.9792 74.8093 21.019 74.5142 21.0114C74.2472 21.0186 73.9809 20.9836 73.7249 20.9076C73.5436 20.8592 73.374 20.7744 73.2265 20.6584C73.1154 20.5739 73.0254 20.4649 72.9634 20.3399C72.9122 20.2513 72.8837 20.1514 72.8803 20.0491H72.8041C72.787 20.1861 72.7318 20.3156 72.6449 20.423C72.5422 20.5488 72.415 20.6525 72.2711 20.7276C72.0903 20.8267 71.897 20.9012 71.6964 20.9491C71.4469 21.0076 71.1912 21.0355 70.9349 21.0322C70.686 21.0335 70.4376 21.008 70.1941 20.9561C69.9912 20.9084 69.7988 20.8239 69.6264 20.7068C69.4709 20.5948 69.3469 20.4446 69.2664 20.2707C69.1726 20.0718 69.1275 19.8535 69.1349 19.6337C69.1295 19.5071 69.1494 19.3807 69.1934 19.2618C69.2374 19.143 69.3046 19.0341 69.391 18.9414C69.5694 18.7535 69.7902 18.611 70.0349 18.526C70.3092 18.4183 70.5916 18.3327 70.8795 18.2699C71.1666 18.213 71.449 18.1343 71.7241 18.0345C71.958 17.956 72.176 17.8364 72.368 17.6814C72.5263 17.5272 72.6184 17.3174 72.6248 17.0965C72.6313 16.8756 72.5516 16.6608 72.4026 16.4976C72.2088 16.324 71.9566 16.23 71.6964 16.2345ZM72.6518 18.3114C72.5817 18.4094 72.4921 18.4918 72.3888 18.5537L72.0911 18.7337C71.9953 18.7891 71.9088 18.8592 71.8349 18.9414C71.762 19.0337 71.725 19.1493 71.7311 19.2668C71.7298 19.3676 71.7588 19.4664 71.8141 19.5507C71.8556 19.5964 71.9074 19.6316 71.9652 19.6532C72.023 19.6749 72.0851 19.6825 72.1464 19.6753C72.2167 19.6761 72.2863 19.661 72.3498 19.631C72.4134 19.601 72.4693 19.557 72.5134 19.5022C72.6122 19.3606 72.6609 19.19 72.6518 19.0176V18.3114Z" fill="#F2F2F2"/>
<path d="M79.4642 15.5771L79.388 16.8786H79.4642C79.5377 16.4554 79.7297 16.0617 80.018 15.7432C80.1508 15.617 80.3072 15.5183 80.4783 15.453C80.6495 15.3876 80.8319 15.3568 81.015 15.3625C81.2309 15.3574 81.4454 15.3975 81.645 15.4802C81.8091 15.548 81.9541 15.6549 82.0673 15.7917C82.1776 15.9201 82.258 16.0715 82.3027 16.2348C82.3499 16.4061 82.3732 16.5832 82.3719 16.7609C82.3723 16.9091 82.3489 17.0564 82.3027 17.1971C82.2616 17.3417 82.1909 17.4761 82.095 17.5917C81.9893 17.712 81.8596 17.8087 81.7142 17.8756C81.5322 17.9506 81.3363 17.986 81.1396 17.9794C80.8712 17.993 80.6073 17.9067 80.3988 17.7371C80.3115 17.6676 80.2411 17.5791 80.1931 17.4783C80.1451 17.3776 80.1208 17.2672 80.1219 17.1556C80.1201 17.0593 80.1341 16.9634 80.1634 16.8717C80.1808 16.8064 80.2064 16.7436 80.2396 16.6848C80.264 16.6631 80.2871 16.64 80.3088 16.6156V16.5809C80.3088 16.5809 80.1703 16.6571 80.0942 16.8094C80.0061 17.0292 79.966 17.2652 79.9765 17.5017V18.5886C79.9635 18.7133 79.9954 18.8385 80.0665 18.9417C80.1118 18.9834 80.1655 19.0149 80.2241 19.034C80.2826 19.0531 80.3445 19.0594 80.4057 19.0525H80.6896V20.7694H76.7019V19.0386H76.9857C77.041 19.0405 77.096 19.0297 77.1465 19.0069C77.1969 18.984 77.2414 18.9499 77.2765 18.9071C77.3464 18.824 77.3834 18.718 77.3803 18.6094V17.7094C77.388 17.6525 77.3797 17.5946 77.3565 17.542C77.3333 17.4895 77.296 17.4444 77.2488 17.4117C77.1599 17.3552 77.0564 17.3263 76.9511 17.3286H76.7019V15.5771H79.4642Z" fill="#F2F2F2"/>
<path d="M86.0273 13.8461V15.5768H87.4119V17.3076H86.0273V18.7615C86.0199 18.9367 86.0506 19.1115 86.1173 19.2738C86.1478 19.3414 86.1993 19.3974 86.2642 19.4336C86.329 19.4697 86.4037 19.4841 86.4773 19.4745C86.5624 19.4779 86.6467 19.4562 86.7196 19.4122C86.7812 19.3759 86.8315 19.3231 86.865 19.2599C86.9024 19.1913 86.9259 19.1161 86.9342 19.0384C86.9342 18.9553 86.9342 18.8584 86.9342 18.7615V18.0692H87.4812V18.8307C87.4824 19.1197 87.4499 19.4078 87.3842 19.6892C87.3292 19.9455 87.2121 20.1844 87.0431 20.3848C86.8741 20.5852 86.6584 20.741 86.415 20.8384C86.092 20.9588 85.7487 21.0152 85.4042 21.0046C85.0369 21.0181 84.6704 20.9617 84.3242 20.8384C84.0833 20.7479 83.8723 20.5921 83.715 20.3884C83.572 20.1812 83.4774 19.9447 83.438 19.6961C83.3949 19.4074 83.374 19.1157 83.3757 18.8238V17.3076H82.635V15.7707C82.8746 15.7759 83.112 15.7236 83.3273 15.6184C83.5317 15.5152 83.7113 15.3687 83.8534 15.1891C84.0039 15.0041 84.1189 14.7929 84.1927 14.5661C84.2766 14.3258 84.3187 14.0729 84.3173 13.8184L86.0273 13.8461Z" fill="#F2F2F2"/>
<path d="M92.3896 17.765C92.3945 17.6657 92.378 17.5665 92.3412 17.4742C92.3177 17.4089 92.2798 17.3498 92.2304 17.3011C92.1866 17.2637 92.1343 17.2375 92.0781 17.225H91.9119C91.8261 17.2188 91.74 17.2317 91.6598 17.2628C91.5796 17.294 91.5073 17.3425 91.4481 17.405C91.3417 17.5537 91.2904 17.7348 91.3027 17.9173V18.6096C91.2916 18.7332 91.3207 18.857 91.3858 18.9627C91.4316 19.0036 91.4854 19.0346 91.5438 19.0537C91.6022 19.0728 91.6639 19.0795 91.725 19.0734H91.9812V20.7696H88.0281V19.0388H88.305C88.3613 19.0407 88.4174 19.0299 88.4689 19.0071C88.5205 18.9844 88.5662 18.9502 88.6027 18.9073C88.6675 18.8217 88.7017 18.7169 88.6996 18.6096V17.7096C88.7073 17.6527 88.699 17.5947 88.6758 17.5422C88.6526 17.4897 88.6153 17.4446 88.5681 17.4119C88.4817 17.3556 88.3804 17.3266 88.2773 17.3288H88.0281V15.5773H90.8389L90.735 16.8788H90.8181C90.8418 16.6582 90.9106 16.4448 91.0201 16.2519C91.1297 16.059 91.2777 15.8906 91.455 15.7573C91.8852 15.4741 92.3946 15.3359 92.9089 15.3626C93.2689 15.3494 93.6277 15.4131 93.9612 15.5496C94.2084 15.6494 94.4272 15.8087 94.5981 16.0134C94.7401 16.1936 94.8438 16.4009 94.9027 16.6226C94.9499 16.8248 94.9754 17.0313 94.9789 17.2388V18.575C94.9693 18.6993 95.0009 18.8234 95.0689 18.928C95.1142 18.9698 95.1679 19.0012 95.2264 19.0204C95.285 19.0395 95.3469 19.0458 95.4081 19.0388H95.6643V20.7696H92.3896V17.765Z" fill="#F2F2F2"/>
<path d="M98.7035 18.4779C98.6777 18.8226 98.7732 19.1655 98.9735 19.4472C99.1079 19.5692 99.272 19.6539 99.4493 19.6928C99.6267 19.7317 99.8111 19.7234 99.9843 19.6687C100.086 19.642 100.181 19.5923 100.261 19.5233C100.354 19.451 100.43 19.3587 100.483 19.2533C100.552 19.1221 100.594 18.9786 100.607 18.831H102.331C102.282 19.1925 102.162 19.5407 101.978 19.8556C101.818 20.1336 101.595 20.3706 101.327 20.5479C101.045 20.7232 100.733 20.8452 100.407 20.9079C100.02 20.9886 99.625 21.0281 99.2297 21.0256C98.806 21.0263 98.3842 20.9681 97.9766 20.8526C97.6014 20.7504 97.2506 20.5738 96.945 20.3333C96.6486 20.1014 96.4113 19.8024 96.2527 19.461C96.0779 19.0645 95.9928 18.6342 96.0035 18.201C95.9931 17.7826 96.0734 17.367 96.2389 16.9825C96.3949 16.6376 96.6325 16.3359 96.9312 16.1033C97.2291 15.8599 97.5728 15.6786 97.942 15.5702C98.36 15.447 98.7939 15.3864 99.2297 15.3902C99.7331 15.379 100.235 15.4564 100.711 15.6187C101.091 15.751 101.436 15.9663 101.722 16.2487C101.988 16.527 102.184 16.8637 102.297 17.2318C102.424 17.6442 102.484 18.0742 102.477 18.5056L98.7035 18.4779ZM99.3958 16.6433C99.3013 16.6367 99.2066 16.6543 99.1206 16.6942C99.0346 16.7342 98.9602 16.7952 98.9043 16.8718C98.7769 17.111 98.7058 17.3762 98.6966 17.6472H100.081C100.077 17.3896 100.008 17.1372 99.8804 16.9133C99.8365 16.8241 99.7685 16.7489 99.6841 16.6963C99.5997 16.6437 99.5022 16.6157 99.4027 16.6156L99.3958 16.6433Z" fill="#F2F2F2"/>
<path d="M105.924 15.5771L105.841 16.8786H105.924C105.998 16.4554 106.19 16.0617 106.478 15.7432C106.611 15.617 106.767 15.5183 106.938 15.453C107.11 15.3876 107.292 15.3568 107.475 15.3625C107.691 15.3588 107.905 15.3988 108.105 15.4802C108.264 15.5486 108.406 15.652 108.52 15.7826C108.634 15.9132 108.717 16.0678 108.763 16.2348C108.807 16.4068 108.83 16.5834 108.832 16.7609C108.832 16.9091 108.809 17.0564 108.763 17.1971C108.722 17.3432 108.649 17.4781 108.548 17.5917C108.445 17.7118 108.318 17.8086 108.174 17.8756C107.992 17.9496 107.796 17.985 107.6 17.9794C107.329 17.9934 107.063 17.9071 106.852 17.7371C106.767 17.6663 106.698 17.5773 106.652 17.4767C106.605 17.3762 106.581 17.2664 106.582 17.1556C106.58 17.0593 106.594 16.9634 106.624 16.8717C106.641 16.8064 106.667 16.7436 106.7 16.6848L106.755 16.5809V16.5463C106.755 16.5463 106.617 16.6225 106.54 16.7748C106.452 16.9945 106.412 17.2306 106.423 17.4671V18.554C106.41 18.6787 106.442 18.8039 106.513 18.9071C106.558 18.9492 106.612 18.9809 106.67 19.0001C106.729 19.0192 106.791 19.0253 106.852 19.0179H107.136V20.7694H103.086V19.0386H103.363C103.419 19.0411 103.475 19.0305 103.527 19.0077C103.579 18.9849 103.624 18.9505 103.66 18.9071C103.73 18.824 103.767 18.718 103.764 18.6094V17.7094C103.77 17.6526 103.762 17.5952 103.738 17.5429C103.715 17.4907 103.679 17.4454 103.633 17.4117C103.543 17.3563 103.44 17.3275 103.335 17.3286H103.086V15.5771H105.924Z" fill="#F2F2F2"/>
<path d="M114.71 17.3077H113.408C113.32 17.0919 113.174 16.9049 112.986 16.7677C112.81 16.6428 112.6 16.5751 112.384 16.5739C112.266 16.5653 112.148 16.5918 112.044 16.65C112.004 16.674 111.971 16.7087 111.949 16.7502C111.927 16.7917 111.917 16.8385 111.92 16.8854C111.921 16.9502 111.942 17.013 111.981 17.0651C112.019 17.1172 112.073 17.156 112.134 17.1762C112.311 17.2511 112.494 17.3091 112.681 17.3492C112.903 17.3977 113.138 17.46 113.374 17.5292C113.617 17.5994 113.85 17.7019 114.066 17.8339C114.287 17.9671 114.474 18.1495 114.613 18.3669C114.768 18.6355 114.843 18.9432 114.827 19.2531C114.833 19.5146 114.769 19.7728 114.641 20.0008C114.512 20.2129 114.333 20.391 114.121 20.52C113.88 20.661 113.619 20.7637 113.346 20.8246C113.032 20.8956 112.712 20.9305 112.391 20.9285C112.072 20.9292 111.754 20.8968 111.442 20.8316C111.141 20.7633 110.852 20.6514 110.584 20.4993L110.535 20.8246H109.289V18.9208H110.584C110.688 19.1538 110.85 19.3563 111.054 19.5093C111.232 19.644 111.448 19.717 111.671 19.7169C111.803 19.7276 111.934 19.6935 112.044 19.62C112.078 19.5949 112.105 19.5626 112.124 19.5254C112.144 19.4883 112.154 19.4472 112.155 19.4054C112.154 19.339 112.133 19.2745 112.095 19.2202C112.056 19.1659 112.003 19.1243 111.941 19.1008C111.767 19.0216 111.586 18.959 111.401 18.9139L110.708 18.7269C110.465 18.6633 110.232 18.5654 110.016 18.4362C109.799 18.3033 109.614 18.1235 109.476 17.91C109.321 17.6489 109.246 17.3479 109.261 17.0446C109.257 16.8027 109.317 16.564 109.434 16.3523C109.554 16.1386 109.723 15.956 109.926 15.8192C110.159 15.6662 110.417 15.5538 110.687 15.4869C111.344 15.3208 112.032 15.3208 112.688 15.4869C112.933 15.5442 113.166 15.6401 113.381 15.7708L113.429 15.4385H114.682L114.71 17.3077Z" fill="#F2F2F2"/>
<path d="M124.776 16.3522H123.232C123.206 16.1919 123.147 16.0388 123.059 15.9022C122.976 15.7635 122.868 15.6415 122.741 15.5422C122.617 15.4402 122.476 15.3606 122.325 15.3068C122.171 15.2548 122.01 15.229 121.847 15.2306C121.678 15.2242 121.51 15.2649 121.363 15.3483C121.306 15.3784 121.259 15.4233 121.226 15.4782C121.193 15.5331 121.176 15.5959 121.176 15.6599C121.175 15.7225 121.19 15.7844 121.219 15.8399C121.248 15.8955 121.29 15.943 121.342 15.9783C121.475 16.072 121.622 16.1422 121.778 16.186L122.394 16.3522C122.623 16.4076 122.858 16.4768 123.087 16.5529C123.324 16.6308 123.555 16.7256 123.779 16.8368C124.007 16.9467 124.216 17.0941 124.395 17.2729C124.581 17.4549 124.729 17.6713 124.831 17.9099C124.949 18.1975 125.005 18.5063 124.997 18.8168C125.007 19.1538 124.923 19.487 124.755 19.7791C124.595 20.0571 124.372 20.294 124.104 20.4714C123.816 20.646 123.5 20.7701 123.17 20.8383C122.809 20.9223 122.44 20.9641 122.069 20.963C121.712 20.941 121.358 20.8759 121.017 20.7691C120.658 20.6765 120.314 20.5368 119.992 20.3537V20.7691H118.427V18.2145H119.992C120.069 18.5477 120.257 18.845 120.525 19.0576C120.793 19.2701 121.125 19.3854 121.467 19.3845C121.647 19.3992 121.828 19.3529 121.979 19.253C122.03 19.2208 122.072 19.177 122.102 19.1252C122.132 19.0734 122.149 19.0151 122.152 18.9553C122.15 18.8678 122.122 18.783 122.071 18.7115C122.02 18.64 121.95 18.5851 121.868 18.5537C121.647 18.4466 121.415 18.3631 121.176 18.3045L120.269 18.0483C119.945 17.9632 119.637 17.8277 119.355 17.6468C119.075 17.4709 118.839 17.2343 118.663 16.9545C118.457 16.6152 118.358 16.2221 118.379 15.826C118.374 15.5097 118.45 15.1975 118.601 14.9191C118.742 14.6451 118.946 14.408 119.196 14.2268C119.459 14.0406 119.752 13.9002 120.061 13.8114C120.397 13.7189 120.744 13.6723 121.093 13.6729C121.531 13.6659 121.967 13.7243 122.387 13.846C122.682 13.9342 122.963 14.0599 123.225 14.2199V13.846H124.783L124.776 16.3522Z" fill="#F2F2F2"/>
<path d="M129.054 16.7331L129.989 16.1516C130.082 16.107 130.161 16.0375 130.218 15.9508C130.232 15.9218 130.24 15.8898 130.24 15.8574C130.24 15.8249 130.232 15.7929 130.218 15.7639C130.197 15.7064 130.155 15.6593 130.1 15.6324C130.033 15.5932 129.956 15.574 129.878 15.577V13.8462H133.7V15.577C133.52 15.5739 133.341 15.5948 133.167 15.6393C132.989 15.6925 132.819 15.7693 132.661 15.8677L131.678 16.4493L133.271 18.5262C133.326 18.6093 133.381 18.6785 133.437 18.7478C133.492 18.8084 133.552 18.864 133.617 18.9139C133.689 18.9568 133.766 18.9916 133.845 19.0178C133.951 19.0479 134.061 19.0619 134.171 19.0593V20.7693H129.878V19.0385C129.981 19.0463 130.085 19.0247 130.176 18.9762C130.203 18.9624 130.227 18.9428 130.246 18.919C130.265 18.8951 130.279 18.8674 130.287 18.8378C130.304 18.7861 130.304 18.7302 130.287 18.6785C130.271 18.6381 130.252 18.5988 130.231 18.5608L129.539 17.7093L129.02 18.0278V18.5608C129.016 18.6323 129.016 18.704 129.02 18.7755C129.026 18.8289 129.048 18.8795 129.082 18.9208C129.124 18.9618 129.177 18.9905 129.234 19.0039C129.325 19.0288 129.418 19.0404 129.511 19.0385V20.7693H125.441V19.0385C125.648 19.0533 125.856 19.0126 126.043 18.9208C126.107 18.8742 126.158 18.811 126.19 18.7379C126.222 18.6648 126.233 18.5845 126.223 18.5054V16.1101C126.232 16.0301 126.22 15.9491 126.189 15.8751C126.157 15.801 126.107 15.7365 126.043 15.6877C125.855 15.5989 125.648 15.5608 125.441 15.577V13.8462H129.511V15.577C129.42 15.5642 129.326 15.5642 129.234 15.577C129.176 15.5927 129.124 15.6238 129.082 15.667C129.045 15.7068 129.023 15.7582 129.02 15.8124C129.016 15.8838 129.016 15.9555 129.02 16.027L129.054 16.7331Z" fill="#F2F2F2"/>
<path d="M138.262 18.3601H136.767L136.698 18.5608C136.671 18.6135 136.658 18.6716 136.658 18.7304C136.658 18.7893 136.671 18.8474 136.698 18.9001C136.742 18.951 136.797 18.9903 136.86 19.0145C136.923 19.0386 136.991 19.0469 137.058 19.0385H137.328V20.7693H134.378V19.0385H134.579C134.66 19.0481 134.741 19.0407 134.819 19.0169C134.896 18.993 134.968 18.9532 135.029 18.9001C135.126 18.7814 135.203 18.6482 135.258 18.5054L136.227 16.1101C136.26 16.0492 136.281 15.9821 136.286 15.9129C136.292 15.8438 136.284 15.7742 136.261 15.7085C136.22 15.6185 136.081 15.577 135.846 15.577H135.749V13.8462H140.595V15.577H140.54C140.305 15.577 140.166 15.6185 140.125 15.7154C140.102 15.7799 140.094 15.8484 140.1 15.9164C140.106 15.9844 140.126 16.0504 140.159 16.1101L141.135 18.5054C141.135 18.5954 141.205 18.6716 141.232 18.7339C141.263 18.7929 141.301 18.8486 141.343 18.9001C141.392 18.9504 141.455 18.9863 141.523 19.0039C141.616 19.0282 141.711 19.0399 141.807 19.0385H142.001V20.7693H137.701V19.0385H137.964C138.031 19.0469 138.099 19.0386 138.162 19.0145C138.225 18.9903 138.281 18.951 138.325 18.9001C138.354 18.8485 138.37 18.79 138.37 18.7304C138.37 18.6709 138.354 18.6124 138.325 18.5608L138.262 18.3601ZM137.009 17.6193H138.013L137.542 16.1654H137.501L137.009 17.6193Z" fill="#F2F2F2"/>
<path d="M51.2732 30.4617L50.1309 28.7655V30.4617H48.8986V26.564H50.1309V28.2117L51.2317 26.564H52.6163L51.2317 28.4401L52.6717 30.5171L51.2732 30.4617Z" fill="#F2F2F2"/>
<path d="M56.7079 29.894H55.3856L55.1917 30.4824H53.911L55.344 26.564H56.7287L58.1964 30.4617H56.9018L56.7079 29.894ZM56.4033 28.9663L56.0779 27.8724L55.7248 28.9663H56.4033Z" fill="#F2F2F2"/>
<path d="M63.3402 30.4617H62.1079L60.8064 28.4886V30.4617H59.581V26.564H60.8064L62.1079 28.5647V26.564H63.3402V30.4617Z" fill="#F2F2F2"/>
<path d="M65.1264 27.478C65.2851 27.1849 65.5257 26.9444 65.8187 26.7857C66.1329 26.6082 66.4895 26.5197 66.8503 26.5296C67.1636 26.5225 67.4742 26.5889 67.7572 26.7234C68.0333 26.8362 68.2728 27.0231 68.4495 27.2634C68.6198 27.505 68.7333 27.7819 68.7818 28.0734H67.4318C67.3788 27.9524 67.2923 27.8491 67.1826 27.7757C67.0693 27.7107 66.9389 27.6818 66.8087 27.6926C66.7137 27.6881 66.6191 27.7073 66.5333 27.7483C66.4475 27.7894 66.3732 27.8512 66.3172 27.928C66.1894 28.1099 66.1261 28.3292 66.1372 28.5511C66.1271 28.7751 66.1903 28.9963 66.3172 29.1811C66.3748 29.2558 66.4495 29.3155 66.5351 29.3553C66.6206 29.3951 66.7145 29.4137 66.8087 29.4096C66.9418 29.4122 67.0724 29.3735 67.1826 29.2988C67.2923 29.2254 67.3788 29.1221 67.4318 29.0011H68.7264C68.6711 29.2778 68.5578 29.5397 68.3941 29.7696C68.2134 30.0059 67.975 30.1918 67.7018 30.3096C67.4174 30.4393 67.1074 30.5032 66.7949 30.4965C66.4388 30.5072 66.086 30.4262 65.7703 30.2611C65.4793 30.0996 65.2394 29.8598 65.078 29.5688C64.923 29.2445 64.8427 28.8897 64.8427 28.5303C64.8427 28.171 64.923 27.8161 65.078 27.4919L65.1264 27.478Z" fill="#F2F2F2"/>
<path d="M71.5095 27.5401V28.0247H72.728V28.9524H71.5095V29.4994H72.8941V30.4617H70.2772V26.564H72.8941V27.5401H71.5095Z" fill="#F2F2F2"/>
<path d="M75.698 29.5547H76.8819V30.4617H74.4657V26.564H75.698V29.5547Z" fill="#F2F2F2"/>
<path d="M80.8904 29.894H79.6165L79.4227 30.4824H78.1349L79.568 26.564H80.9873L82.3858 30.4617H81.0911L80.8904 29.894ZM80.5927 28.9663L80.2396 27.8724L79.8865 28.9663H80.5927Z" fill="#F2F2F2"/>
<path d="M85.7365 30.4619L85.0027 29.0772V30.4619H83.7704V26.5641H85.5981C85.8795 26.5566 86.1589 26.6134 86.415 26.7303C86.6239 26.8308 86.7994 26.9895 86.9204 27.1872C87.0317 27.3884 87.089 27.615 87.0865 27.8449C87.0906 28.0927 87.0154 28.3352 86.8719 28.5372C86.7153 28.7477 86.494 28.9009 86.2419 28.9734L87.0865 30.4619H85.7365ZM84.9958 28.2395H85.4804C85.5775 28.2461 85.6737 28.2165 85.7504 28.1565C85.7801 28.1225 85.8028 28.083 85.817 28.0402C85.8313 27.9974 85.8369 27.9522 85.8335 27.9072C85.8363 27.8617 85.8299 27.8161 85.8144 27.7732C85.7989 27.7304 85.7747 27.6911 85.7434 27.658C85.6696 27.5978 85.5755 27.5681 85.4804 27.5749H84.9958V28.2395Z" fill="#F2F2F2"/>
<path d="M89.8142 26.564V30.4617H88.6165V26.564H89.8142Z" fill="#F2F2F2"/>
<path d="M93.9889 29.894H92.6804L92.4866 30.4824H91.1989L92.6319 26.564H94.0166L95.4773 30.4617H94.155L93.9889 29.894ZM93.6912 28.9663L93.3381 27.8724L92.9781 28.9663H93.6912Z" fill="#F2F2F2"/>
<path d="M101.95 28.5785C101.828 28.7845 101.651 28.9524 101.438 29.0631C101.186 29.1863 100.908 29.2457 100.628 29.2362H100.144V30.4616H98.9112V26.5638H100.628C100.828 26.5488 101.029 26.5735 101.219 26.6365C101.409 26.6995 101.585 26.7995 101.736 26.9308C101.865 27.0574 101.965 27.2099 102.031 27.3781C102.096 27.5464 102.126 27.7266 102.117 27.9069C102.119 28.1412 102.062 28.3723 101.95 28.5785ZM100.87 27.8862C100.87 27.6439 100.746 27.5262 100.49 27.5262H100.144V28.2185H100.49C100.746 28.2669 100.87 28.1492 100.87 27.9069V27.8862Z" fill="#F2F2F2"/>
<path d="M105.585 30.4619L104.851 29.0772V30.4619H103.619V26.5641H105.447C105.728 26.5566 106.007 26.6134 106.264 26.7303C106.474 26.8287 106.65 26.9879 106.769 27.1872C106.883 27.3877 106.942 27.6144 106.942 27.8449C106.945 28.1016 106.864 28.3522 106.709 28.5575C106.555 28.7629 106.338 28.9116 106.09 28.9803L106.935 30.4619H105.585ZM104.844 28.2395H105.329C105.426 28.2461 105.522 28.2165 105.599 28.1565C105.659 28.0872 105.692 27.9988 105.692 27.9072C105.692 27.8157 105.659 27.7272 105.599 27.658C105.563 27.6275 105.521 27.6045 105.476 27.5903C105.431 27.576 105.383 27.5708 105.336 27.5749H104.851L104.844 28.2395Z" fill="#F2F2F2"/>
<path d="M110.95 29.894H109.642L109.448 30.4824H108.154L109.594 26.564H110.978L112.439 30.4617H111.144L110.95 29.894ZM110.646 28.9663L110.293 27.8724L109.94 28.9663H110.646Z" fill="#F2F2F2"/>
<path d="M119.473 26.5642L118.573 30.4619H117.043L116.593 28.2396L116.136 30.4619H114.606L113.713 26.5435H115.035L115.388 29.015L115.921 26.5435H117.264L117.791 29.015L118.151 26.5435L119.473 26.5642Z" fill="#F2F2F2"/>
<path d="M124.783 30.4617H123.551L122.249 28.4886V30.4617H121.024V26.564H122.249L123.551 28.5647V26.564H124.783V30.4617Z" fill="#F2F2F2"/>
<path d="M128.958 29.894H127.649L127.455 30.4824H126.168L127.601 26.564H129.02L130.446 30.4617H129.151L128.958 29.894ZM128.66 28.9663L128.307 27.8724L127.954 28.9663H128.66Z" fill="#F2F2F2"/>
<path d="M32.5394 18.0416V0H0.000771044V18.0416C-0.023833 20.7646 0.540668 23.4606 1.65557 25.945C2.77048 28.4293 4.40942 30.6432 6.46004 32.4348C9.21017 34.7379 12.6829 36 16.2701 36C19.8572 36 23.33 34.7379 26.0801 32.4348C28.823 30.0786 30.8038 26.9605 31.7709 23.4763C31.798 23.4091 31.8189 23.3396 31.8332 23.2686C32.3022 21.5659 32.5398 19.8078 32.5394 18.0416ZM30.4625 2.07693V18.0416C30.4597 19.4265 30.297 20.8064 29.9779 22.154C29.4913 22.2182 28.9965 22.1709 28.5309 22.0155L28.0878 21.8978C26.7032 21.5517 25.914 20.7832 24.7163 19.627L24.6609 19.5716C22.2655 17.2386 17.3086 11.5547 13.7362 7.40773C11.8808 5.27541 10.3854 3.58617 9.69313 2.82463C9.41983 2.54763 9.12078 2.29727 8.80005 2.07693H30.4625ZM2.07771 18.0416V2.07693C3.65617 2.18078 6.66773 2.58924 8.17697 4.20925C8.86928 4.90157 10.3854 6.69465 12.1578 8.73697L13.487 10.2739L2.41001 21.2332C2.20167 20.1818 2.09043 19.1134 2.07771 18.0416ZM24.7301 30.8771C22.3604 32.8675 19.3648 33.9586 16.2701 33.9586C13.1754 33.9586 10.1798 32.8675 7.81004 30.8771C5.53778 28.933 3.85639 26.3905 2.95694 23.5386L14.8439 11.8247C17.9455 15.3832 21.3101 19.184 23.207 21.0117L23.2624 21.067C24.5432 22.3063 25.6509 23.3724 27.5686 23.8363L27.9771 23.9471C28.4266 24.0836 28.8921 24.1604 29.3617 24.1755C28.425 26.7732 26.829 29.0826 24.7301 30.8771Z" fill="#F2F2F2"/>
</svg>
