<svg width="47" height="52" viewBox="0 0 47 52" fill="none" xmlns="http://www.w3.org/2000/svg">
<g clip-path="url(#clip0)">
<path d="M47 26.06V0H-1.66823e-07V26.06C-0.0355391 29.9931 0.779847 33.8874 2.39026 37.4758C4.00067 41.0643 6.36801 44.2621 9.33 46.85C13.3024 50.1767 18.3186 51.9997 23.5 51.9997C28.6814 51.9997 33.6976 50.1767 37.67 46.85C41.6319 43.4467 44.493 38.9427 45.89 33.91C45.9291 33.813 45.9592 33.7125 45.98 33.61C46.6574 31.1505 47.0005 28.611 47 26.06ZM44 3V26.06C43.9959 28.0603 43.7611 30.0535 43.3 32C42.5972 32.0928 41.8825 32.0244 41.21 31.8L40.57 31.63C38.57 31.13 37.43 30.02 35.7 28.35L35.62 28.27C32.16 24.9 25 16.69 19.84 10.7C17.16 7.62 15 5.18 14 4.08C13.6052 3.6799 13.1733 3.31827 12.71 3H44ZM3 26.06V3C5.28 3.15 9.63 3.74 11.81 6.08C12.81 7.08 15 9.67 17.56 12.62L19.48 14.84L3.48 30.67C3.17906 29.1513 3.01838 27.6081 3 26.06ZM35.72 44.6C32.2971 47.475 27.9701 49.0511 23.5 49.0511C19.0299 49.0511 14.7029 47.475 11.28 44.6C7.99785 41.7919 5.56919 38.1195 4.27 34L21.44 17.08C25.92 22.22 30.78 27.71 33.52 30.35L33.6 30.43C35.45 32.22 37.05 33.76 39.82 34.43L40.41 34.59C41.0593 34.7872 41.7318 34.8981 42.41 34.92C41.0571 38.6722 38.7516 42.008 35.72 44.6Z" fill="#F2F2F2"/>
</g>
<defs>
<clipPath id="clip0">
<rect width="47" height="52" fill="white"/>
</clipPath>
</defs>
</svg>
