<svg width="300" height="76" viewBox="0 0 300 76" fill="none" xmlns="http://www.w3.org/2000/svg">
<g clip-path="url(#clip0)">
<path d="M39.2399 15.3672V7.02418C42.6003 7.95118 45.8448 9.45755 48.7416 11.5433C51.4068 13.3973 53.7242 15.7148 55.5782 18.264H61.9514C59.518 14.0925 56.2735 10.5004 52.3337 7.71942C47.0035 3.77968 40.6304 1.46219 34.0255 0.882812C34.0255 5.74956 34.0255 10.6163 34.0255 15.3672H39.2399Z" fill="#283045"/>
<path d="M42.6003 68.9012C49.2051 66.5837 54.9989 62.5281 59.2862 57.082C62.8784 52.447 65.3117 46.885 66.2387 40.9754C66.8181 37.4991 66.7022 33.907 66.2387 30.4307L52.5655 39.0055C52.5655 41.0912 52.5655 43.0611 52.5655 45.1468L61.0244 39.8166C60.6767 42.25 60.0974 44.6833 59.1704 47.0008C58.0116 49.7818 56.5052 52.3311 54.6512 54.5327C50.7115 59.3994 45.2654 62.8757 39.2399 64.4979C39.2399 51.0564 39.2399 37.615 39.2399 24.0576H34.0255C34.0255 39.5848 34.0255 55.1121 34.0255 70.6393" fill="#283045"/>
<path d="M28.1159 70.6395V59.052C27.1889 58.7044 26.2619 58.3568 25.3349 58.0091C24.4079 57.6615 23.5967 57.198 22.9015 56.7345V64.3822C19.0776 63.3394 15.3696 61.4854 12.241 59.052C10.0394 57.3139 7.95364 55.2281 6.33139 52.9106H0.0741577C2.27578 56.7345 5.17264 60.0949 8.53301 62.76C14.2109 67.395 20.9316 70.0601 28.1159 70.6395Z" fill="#283045"/>
<path d="M13.7474 11.08C16.5284 9.22596 19.657 7.83546 22.9015 6.90846V45.8424C24.292 47.5805 26.0301 48.9711 28.1159 49.7822C28.1159 33.4438 28.1159 17.1054 28.1159 0.76709C26.8412 0.882965 25.4507 0.99885 24.1761 1.2306C19.1935 2.1576 14.4426 4.12747 10.2711 7.02434C6.09964 9.92121 2.6234 13.7451 0.0741577 18.0325H6.44727C8.41715 15.4832 10.9664 13.0498 13.7474 11.08Z" fill="#283045"/>
<path d="M31.708 52.6791C31.4762 52.7949 31.2445 52.7949 31.0128 52.7949C29.6223 52.4473 28.3476 51.9838 27.1889 51.4044C24.8714 50.2457 22.7856 48.5076 21.0475 46.4218C19.7729 44.9154 18.8459 43.1773 18.2665 41.3233C17.9189 40.2804 17.803 39.2376 17.6871 38.1947C17.6871 32.8644 17.6871 27.5342 17.6871 22.204H20.9316C20.9316 20.4658 20.9316 18.8436 20.9316 17.1055H12.4728C12.4728 24.058 12.4728 31.1263 12.4728 38.0788C12.4728 39.4693 12.7045 40.8598 13.0522 42.2503C13.6315 44.1043 14.5585 45.9583 15.7173 47.5805C16.6443 48.971 17.803 50.3616 18.9618 51.5203C20.8158 53.2584 22.9015 54.7648 25.1031 55.9235C26.9571 56.8505 28.8111 57.5458 30.781 57.8934C31.0128 57.8934 31.2445 57.7775 31.4762 57.7775C31.5921 57.7775 31.8239 57.6617 31.9398 57.6617C31.9398 55.9235 31.9398 54.1854 31.9398 52.4473C31.9398 52.5632 31.8239 52.6791 31.708 52.6791Z" fill="#283045"/>
<path d="M49.5527 28.5769C49.5527 26.7229 49.5527 25.2165 49.5527 22.8991C49.5527 21.0451 49.5527 19.0752 49.5527 17.2212H29.9698V22.3197H44.3383C44.3383 22.8991 44.4542 34.4865 44.3383 38.3104C44.3383 38.8898 44.3383 39.3533 44.2225 39.9327C43.8748 41.5549 43.2955 43.0613 42.4843 44.4518C42.0208 45.147 41.5573 45.8423 41.0938 46.5375V53.3741C42.6002 52.0995 43.9907 50.709 45.2653 49.2027C45.8447 48.5074 46.4241 47.6963 46.8876 46.8851C48.394 44.5676 49.321 41.9025 49.5527 39.0056C49.5527 38.8898 49.5527 38.4263 49.5527 37.4993C49.5527 33.6754 49.5527 30.6627 49.5527 28.5769Z" fill="#283045"/>
<path d="M92.8899 71.219H86.9803V59.8633H88.2549V70.0603H92.774V71.219H92.8899Z" fill="#283045"/>
<path d="M107.722 71.219H101.696V59.8633H107.49V61.022H103.087V64.8459H107.143V66.0047H103.087V69.9444H107.722V71.219Z" fill="#283045"/>
<path d="M125.451 70.5236C124.292 71.2188 123.017 71.4506 121.627 71.4506C120.005 71.4506 118.73 70.8712 117.687 69.8283C116.644 68.7854 116.181 67.3949 116.181 65.6568C116.181 63.9187 116.76 62.4123 117.803 61.3695C118.962 60.2107 120.352 59.6313 121.975 59.6313C123.249 59.6313 124.292 59.8631 125.103 60.2107V61.7171C124.176 61.1377 123.133 60.7901 121.859 60.7901C120.584 60.7901 119.541 61.2536 118.73 62.0647C117.919 62.8758 117.455 64.0346 117.455 65.4251C117.455 66.8156 117.803 67.9743 118.614 68.7855C119.425 69.5966 120.352 70.0601 121.743 70.0601C122.67 70.0601 123.365 69.8283 124.06 69.4807V66.3521H121.627V65.1933H125.451V70.5236Z" fill="#283045"/>
<path d="M143.991 71.219H142.484L141.326 68.0904H136.459L135.3 71.219H133.794L138.197 59.8633H139.587L143.991 71.219ZM140.862 66.9317L139.124 62.0649C139.008 61.949 139.008 61.6014 138.892 61.2538C138.892 61.6014 138.776 61.8331 138.66 62.0649L136.922 66.9317H140.862Z" fill="#283045"/>
<path d="M158.591 71.219H152.681V59.8633H153.956V70.0603H158.475V71.219H158.591Z" fill="#283045"/>
<path d="M178.406 70.7552V69.2488C178.637 69.3647 178.753 69.5964 179.101 69.7123C179.333 69.8282 179.564 69.9441 179.912 70.06C180.144 70.1758 180.491 70.1758 180.723 70.2917C180.955 70.2917 181.302 70.4076 181.534 70.4076C182.345 70.4076 182.925 70.2917 183.388 69.9441C183.736 69.5965 183.967 69.2488 183.967 68.6694C183.967 68.3218 183.852 68.0901 183.736 67.8583C183.62 67.6266 183.388 67.3948 183.156 67.2789C182.925 67.0472 182.693 66.9313 182.345 66.6996C181.998 66.5837 181.65 66.3519 181.302 66.1202C180.955 65.8884 180.491 65.7726 180.144 65.5408C179.796 65.3091 179.448 65.0773 179.217 64.8456C178.985 64.6138 178.753 64.2662 178.637 64.0345C178.521 63.6868 178.406 63.3392 178.406 62.8757C178.406 62.4122 178.521 61.9487 178.753 61.4852C178.985 61.1376 179.333 60.79 179.68 60.5582C180.028 60.3265 180.491 60.0947 180.955 59.9788C181.418 59.863 181.882 59.7471 182.345 59.7471C183.504 59.7471 184.315 59.863 184.779 60.0947V61.6011C184.083 61.1376 183.272 60.9058 182.229 60.9058C181.882 60.9058 181.65 60.9058 181.302 61.0217C180.955 61.1376 180.723 61.1376 180.491 61.3693C180.26 61.4852 180.028 61.717 179.912 61.9487C179.796 62.1805 179.68 62.4122 179.68 62.7598C179.68 63.1074 179.68 63.3392 179.796 63.4551C179.912 63.6868 180.028 63.8027 180.26 64.0345C180.491 64.2662 180.723 64.3821 181.071 64.4979C181.418 64.6138 181.766 64.8456 182.114 65.0773C182.577 65.3091 182.925 65.5408 183.272 65.6567C183.62 65.7726 183.968 66.1202 184.199 66.352C184.431 66.5837 184.663 66.9313 184.895 67.2789C185.01 67.6266 185.126 67.9742 185.126 68.4377C185.126 69.0171 185.01 69.4806 184.779 69.8282C184.547 70.1758 184.315 70.5234 183.852 70.7552C183.388 70.9869 183.041 71.2187 182.577 71.3346C182.114 71.4504 181.534 71.4504 181.071 71.4504C180.839 71.4504 180.723 71.4504 180.375 71.4504C180.144 71.4504 179.796 71.3346 179.564 71.3346C179.333 71.3346 178.985 71.2187 178.753 71.1028C178.753 70.987 178.521 70.8711 178.406 70.7552Z" fill="#283045"/>
<path d="M200.654 71.219H194.628V59.8633H200.422V61.022H196.019V64.8459H200.074V66.0047H196.019V69.9444H200.654V71.219Z" fill="#283045"/>
<path d="M218.035 71.219H216.412L214.559 68.0904C214.327 67.7428 214.211 67.511 214.095 67.2793C213.979 67.0475 213.747 66.9316 213.631 66.8158C213.516 66.6999 213.284 66.584 213.052 66.4682C212.82 66.3523 212.589 66.3523 212.357 66.3523H211.314V71.219H210.039V59.8633H213.4C213.863 59.8633 214.327 59.9792 214.79 60.095C215.254 60.2109 215.601 60.4427 215.833 60.6744C216.065 60.9062 216.412 61.2538 216.528 61.6014C216.76 61.949 216.76 62.4125 216.76 62.876C216.76 63.2237 216.644 63.6872 216.528 63.9189C216.412 64.2665 216.297 64.4983 216.065 64.8459C215.833 65.0777 215.601 65.3094 215.254 65.5411C214.906 65.7729 214.558 65.8888 214.211 66.0047C214.443 66.1205 214.558 66.2364 214.674 66.3523C214.79 66.4682 214.906 66.584 215.022 66.6999C215.138 66.8158 215.254 67.0475 215.37 67.1634C215.485 67.3952 215.601 67.511 215.833 67.8586L218.035 71.219ZM211.198 61.1379V65.3094H213.052C213.4 65.3094 213.747 65.3094 213.979 65.1935C214.211 65.0777 214.558 64.9618 214.674 64.73C214.906 64.4983 215.022 64.2665 215.138 64.0348C215.254 63.803 215.37 63.4554 215.37 63.1078C215.37 62.5284 215.138 62.0649 214.79 61.7173C214.443 61.3697 213.863 61.2538 213.052 61.2538H211.198V61.1379Z" fill="#283045"/>
<path d="M235.184 59.8633L231.013 71.219H229.506L225.335 59.8633H226.841L229.97 68.9015C230.086 69.2492 230.202 69.4809 230.202 69.9444C230.202 69.5968 230.317 69.2492 230.433 68.9015L233.678 59.8633H235.184Z" fill="#283045"/>
<path d="M245.15 71.219H243.875V59.8633H245.15V71.219Z" fill="#283045"/>
<path d="M262.994 70.7555C262.183 71.219 261.14 71.4508 259.866 71.4508C258.243 71.4508 256.969 70.9873 256.042 69.9444C255.115 68.9015 254.535 67.511 254.535 65.8888C254.535 64.0348 255.115 62.6443 256.158 61.4855C257.2 60.3268 258.591 59.8633 260.329 59.8633C261.372 59.8633 262.299 59.9791 262.994 60.3268V61.7173C262.183 61.2538 261.256 61.022 260.329 61.022C259.054 61.022 258.012 61.4855 257.2 62.2967C256.389 63.2237 256.042 64.3824 256.042 65.7729C256.042 67.1634 256.389 68.2063 257.2 69.1333C258.012 69.9444 258.939 70.4079 260.213 70.4079C261.372 70.4079 262.299 70.1761 263.226 69.5968V70.7555H262.994Z" fill="#283045"/>
<path d="M278.406 71.219H272.38V59.8633H278.174V61.022H273.771V64.8459H277.826V66.0047H273.771V69.9444H278.406V71.219Z" fill="#283045"/>
<path d="M287.096 70.7552V69.2488C287.328 69.3647 287.444 69.5964 287.791 69.7123C288.023 69.8282 288.255 69.9441 288.603 70.06C288.834 70.1758 289.182 70.1758 289.414 70.2917C289.645 70.2917 289.993 70.4076 290.225 70.4076C291.036 70.4076 291.615 70.2917 292.079 69.9441C292.426 69.5965 292.658 69.2488 292.658 68.6694C292.658 68.3218 292.542 68.0901 292.426 67.8583C292.311 67.6266 292.079 67.3948 291.847 67.2789C291.615 67.0472 291.384 66.9313 291.036 66.6996C290.688 66.5837 290.341 66.3519 289.993 66.1202C289.645 65.8884 289.182 65.7726 288.834 65.5408C288.487 65.3091 288.139 65.0773 287.907 64.8456C287.676 64.6138 287.444 64.2662 287.328 64.0345C287.212 63.6868 287.096 63.3392 287.096 62.8757C287.096 62.4122 287.212 61.9487 287.444 61.4852C287.676 61.1376 288.023 60.79 288.371 60.5582C288.718 60.3265 289.182 60.0947 289.645 59.9788C290.109 59.863 290.572 59.7471 291.036 59.7471C292.195 59.7471 293.006 59.863 293.469 60.0947V61.6011C292.774 61.1376 291.963 60.9058 290.92 60.9058C290.572 60.9058 290.341 60.9058 289.993 61.0217C289.645 61.1376 289.414 61.1376 289.182 61.3693C288.95 61.4852 288.718 61.717 288.603 61.9487C288.487 62.1805 288.371 62.4122 288.371 62.7598C288.371 63.1074 288.371 63.3392 288.487 63.4551C288.603 63.6868 288.718 63.8027 288.95 64.0345C289.182 64.2662 289.414 64.3821 289.761 64.4979C290.109 64.6138 290.457 64.8456 290.804 65.0773C291.268 65.3091 291.615 65.5408 291.963 65.6567C292.311 65.7726 292.658 66.1202 292.89 66.352C293.122 66.5837 293.353 66.9313 293.585 67.2789C293.701 67.6266 293.817 67.9742 293.817 68.4377C293.817 69.0171 293.701 69.4806 293.469 69.8282C293.238 70.1758 293.006 70.5234 292.542 70.7552C292.079 70.9869 291.731 71.2187 291.268 71.3346C290.804 71.4504 290.225 71.4504 289.761 71.4504C289.53 71.4504 289.414 71.4504 289.066 71.4504C288.834 71.4504 288.487 71.3346 288.255 71.3346C288.023 71.3346 287.676 71.2187 287.444 71.1028C287.444 70.987 287.212 70.8711 287.096 70.7552Z" fill="#283045"/>
<path d="M246.136 34.8713C246.136 31.5109 246.02 18.6488 246.136 0.919922L240.11 5.20729C240.226 20.1551 240.226 31.0474 240.11 34.9871C240.11 36.2617 239.994 38.9269 238.256 40.0856C237.561 40.5491 236.75 40.7809 235.939 40.7809V41.592H250.191V40.665C249.38 40.665 248.569 40.4332 247.874 39.9697C246.136 38.811 246.136 36.1459 246.136 34.8713Z" fill="#283045"/>
<path d="M221.454 34.7554V6.71366C221.454 2.77392 223.54 1.61517 226.089 1.61517V0.919922H215.545L203.61 33.4808L187.966 0.919922H176.147V1.61517C178.928 1.4993 181.477 3.00567 182.868 5.43904V27.1076C182.868 33.5966 181.825 40.665 174.409 40.665V41.3602H191.327V40.665C184.722 40.665 183.679 33.7125 183.679 27.1076V6.71366L200.133 41.4761H201.292L215.545 3.12154V34.7554C215.545 39.3904 213.691 40.7809 211.257 40.7809V41.4761H226.553V40.665C223.888 40.665 221.454 39.3904 221.454 34.7554Z" fill="#283045"/>
<path d="M163.633 29.4251C162.358 41.0126 151.698 40.665 146.367 40.665H143.586V21.3139H147.526C149.032 21.3139 155.521 21.4298 155.753 27.1076H156.448V14.8249H155.753C155.406 20.6186 149.148 20.6186 147.526 20.6186H143.586V1.61517H146.831C151.698 1.61517 162.01 1.73105 162.706 11.2328H163.401C163.401 7.75654 163.401 4.28029 163.401 0.919922H134.316V1.61517C136.981 1.61517 137.561 3.46917 137.561 7.06129V34.7554C137.561 38.6951 136.866 40.7809 134.316 40.7809V41.4761H164.328C164.328 37.5364 164.328 33.4808 164.328 29.541L163.633 29.4251Z" fill="#283045"/>
<path d="M110.446 25.3695C110.446 25.6013 110.446 25.9489 110.446 26.1807C110.794 26.1807 111.025 26.1807 111.373 26.1807C112.184 26.1807 112.879 26.4124 113.575 26.76C114.965 27.4553 115.081 30.0045 115.197 31.5109C115.429 34.5236 115.545 36.6094 114.154 38.4634C111.837 41.7079 106.854 41.4761 105 41.3603C102.914 41.3603 100.828 40.8968 99.0904 39.8539C95.3824 37.5364 92.8331 31.9744 92.8331 21.0822C92.8331 5.09143 98.1634 0.804062 105 0.804062C112.184 0.804062 117.63 3.12156 118.557 12.855H119.484C119.484 9.49468 119.484 6.01843 119.484 2.65806C114.965 0.688187 109.983 -0.238811 105.116 0.108813C102.103 0.340563 97.4681 0.688187 93.1808 3.58506C87.8505 7.29305 85.0695 13.782 85.0695 21.198C85.0695 28.614 87.8505 34.9871 93.1808 38.811C97.584 41.9396 103.146 42.1714 105.116 42.2873C106.39 42.2873 107.781 42.2873 109.056 42.0555C110.91 41.8238 112.764 41.2444 114.386 40.3174C114.965 39.9698 115.429 39.6221 116.356 39.0428C117.978 37.884 119.253 36.957 120.18 36.2618C120.18 34.4078 120.295 32.7855 120.295 31.5109C120.527 28.1505 120.759 27.2235 121.454 26.76C122.149 26.1807 123.076 26.0648 124.003 26.1807C124.003 25.9489 124.003 25.6013 124.003 25.3695H110.446Z" fill="#283045"/>
<path d="M300.017 1.61517V0.919922H283.331V1.61517C291.327 1.61517 287.387 7.75654 284.142 13.4344L281.13 17.7218L272.787 0.919922H260.968V1.73105C261.663 1.73105 262.242 1.73105 262.937 1.84692C263.517 1.9628 263.98 2.19455 264.56 2.42629C265.139 2.65804 265.603 3.00567 266.066 3.35329C266.877 4.04854 267.572 4.85967 268.036 5.78667L277.074 23.8631C277.074 23.8631 275.22 26.5283 274.293 27.9188C267.572 37.884 265.139 40.0856 262.01 40.665C261.199 40.7809 260.388 40.8967 259.577 40.7809V41.592H274.988C274.988 41.3602 274.988 41.1285 274.988 40.8967C271.86 41.0126 271.049 39.9697 270.817 39.6221C269.89 38.2316 271.049 36.03 273.134 31.9744C273.83 30.5839 274.525 29.4251 274.988 28.7299L277.538 24.906L285.765 41.7079H297.584V40.665C297.005 40.665 296.425 40.665 295.846 40.5491C295.151 40.4332 294.455 40.3174 293.76 40.0856C292.37 39.5062 291.327 38.4634 290.747 37.0729L281.593 18.6488L284.722 14.1297C293.528 1.61517 296.309 1.61517 300.017 1.61517Z" fill="#283045"/>
</g>
<defs>
<clipPath id="clip0">
<rect width="300" height="76" fill="white"/>
</clipPath>
</defs>
</svg>
